<?xml version="1.0" encoding="UTF-8" standalone="no"?>
<svg width="63px" height="41px" viewBox="0 0 63 41" version="1.1" xmlns="http://www.w3.org/2000/svg" xmlns:xlink="http://www.w3.org/1999/xlink">
    <!-- Generator: Sketch 3.6.1 (26313) - http://www.bohemiancoding.com/sketch -->
    <title>Artboard 1</title>
    <desc>Created with Sketch.</desc>
    <defs></defs>
    <g id="Page-1" stroke="none" stroke-width="1" fill="none" fill-rule="evenodd">
        <g id="Artboard-1" fill="#000000">
            <path d="M17.9910714,24.9285714 C15.8630846,26.1666729 13.2708486,26.7857143 10.2142857,26.7857143 L6.5,26.7857143 L6.5,24.9285714 L4.64285714,24.9285714 C4.39136779,24.9285714 4.17373604,24.7012672 3.98995536,24.2466518 C3.80617468,23.7920364 3.71428571,23.2455389 3.71428571,22.6071429 C3.71428571,22.1428548 3.78199337,21.6689012 3.91741071,21.1852679 C2.79538129,21.1465772 1.86198289,21.0450157 1.1171875,20.8805804 C0.372392109,20.716145 0,20.5178583 0,20.2857143 C0,20.0535703 0.372392109,19.8552836 1.1171875,19.6908482 C1.86198289,19.5264129 2.79538129,19.4248514 3.91741071,19.3861607 C3.78199337,18.9025273 3.71428571,18.4285737 3.71428571,17.9642857 C3.71428571,17.3258897 3.80617468,16.7793922 3.98995536,16.3247768 C4.17373604,15.8701614 4.39136779,15.6428571 4.64285714,15.6428571 L6.5,15.6428571 L6.5,13.7857143 L10.2142857,13.7857143 C13.2708486,13.7857143 15.8630846,14.4047557 17.9910714,15.6428571 L50.2879464,15.6428571 C51.1004505,15.7782745 52.1305741,15.9523799 53.3783482,16.1651786 C54.6261223,16.3779773 55.4047604,16.5133926 55.7142857,16.5714286 C57.4360205,16.8616086 58.8868989,17.2533457 60.0669643,17.7466518 C61.2470297,18.2399578 62.0546853,18.6994026 62.4899554,19.125 C62.9252254,19.5505974 63.1428571,19.9374983 63.1428571,20.2857143 C63.1428571,20.6339303 62.9252254,21.0208312 62.4899554,21.4464286 C62.0546853,21.8720259 61.2470297,22.3314707 60.0669643,22.8247768 C58.8868989,23.3180828 57.4360205,23.70982 55.7142857,24 C55.4047604,24.058036 54.6261223,24.1934513 53.3783482,24.40625 C52.1305741,24.6190487 51.1004505,24.7931541 50.2879464,24.9285714 L17.9910714,24.9285714 Z M50.4620536,17.6160714 C51.4873563,18.3125035 52,19.2023755 52,20.2857143 C52,21.369053 51.4873563,22.2589251 50.4620536,22.9553571 L52.8125,23.8258929 C54.1279828,22.8973168 54.7857143,21.7172691 54.7857143,20.2857143 C54.7857143,18.8541595 54.1279828,17.6741118 52.8125,16.7455357 L50.4620536,17.6160714 Z M18.1361607,25.3928571 L47.5892857,25.3928571 C43.3913481,26.1279799 38.9806779,26.9017817 34.3571429,27.7142857 C33.2544588,27.7142857 32.1614637,27.9464263 31.078125,28.4107143 C29.9947862,28.8750023 29.1919669,29.3392834 28.6696429,29.8035714 L27.8571429,30.5 L19.5,38.8571429 C18.9970213,39.3601216 18.3151085,39.7953851 17.4542411,40.1629464 C16.5933737,40.5305078 15.7276829,40.7142857 14.8571429,40.7142857 L12.0714286,40.7142857 L9.37276786,27.25 L10.2142857,27.25 C13.2515033,27.25 15.8921019,26.6309586 18.1361607,25.3928571 L18.1361607,25.3928571 Z M10.2142857,13.3214286 L9.37276786,13.3214286 L12.0714286,-0.142857143 L14.8571429,-0.142857143 C15.7470283,-0.142857143 16.6175553,0.0409207813 17.46875,0.408482143 C18.3199447,0.776043504 18.9970213,1.21130701 19.5,1.71428571 L27.8571429,10.0714286 C27.9345242,10.1488099 28.0409219,10.2503714 28.1763393,10.3761161 C28.3117566,10.5018607 28.6067686,10.7243288 29.0613839,11.0435268 C29.5159993,11.3627248 29.9851166,11.643228 30.46875,11.8850446 C30.9523834,12.1268613 31.5472435,12.3493293 32.2533482,12.5524554 C32.9594529,12.7555814 33.6607108,12.8571429 34.3571429,12.8571429 L47.5892857,15.1785714 L18.1361607,15.1785714 C15.8921019,13.94047 13.2515033,13.3214286 10.2142857,13.3214286 L10.2142857,13.3214286 Z" id="Type-something"></path>
        </g>
    </g>
</svg>